<?xml version="1.0" encoding="UTF-8" standalone="no"?>
<!-- Created with Inkscape (http://www.inkscape.org/) -->

<svg
   version="1.1"
   id="svg18"
   width="377.66284"
   height="539.65369"
   viewBox="0 0 377.66285 539.65369"
   sodipodi:docname="process_prs.svg"
   inkscape:version="1.2.2 (b0a8486541, 2022-12-01)"
   xmlns:inkscape="http://www.inkscape.org/namespaces/inkscape"
   xmlns:sodipodi="http://sodipodi.sourceforge.net/DTD/sodipodi-0.dtd"
   xmlns="http://www.w3.org/2000/svg"
   xmlns:svg="http://www.w3.org/2000/svg">
  <defs
     id="defs22" />
  <sodipodi:namedview
     id="namedview20"
     pagecolor="#ffffff"
     bordercolor="#000000"
     borderopacity="0.25"
     inkscape:showpageshadow="2"
     inkscape:pageopacity="0.0"
     inkscape:pagecheckerboard="0"
     inkscape:deskcolor="#d1d1d1"
     showgrid="false"
     showguides="true"
     inkscape:zoom="0.99419917"
     inkscape:cx="891.16952"
     inkscape:cy="287.66872"
     inkscape:window-width="2560"
     inkscape:window-height="1306"
     inkscape:window-x="1920"
     inkscape:window-y="32"
     inkscape:window-maximized="1"
     inkscape:current-layer="g26">
    <sodipodi:guide
       position="-1245.8398,816.5419"
       orientation="0,-1"
       id="guide180"
       inkscape:locked="false" />
    <sodipodi:guide
       position="-738.89909,156.71435"
       orientation="1,0"
       id="guide184"
       inkscape:locked="false" />
  </sodipodi:namedview>
  <g
     id="g26"
     inkscape:groupmode="layer"
     inkscape:label="Page 1"
     transform="matrix(1.3333333,0,0,-1.3333333,-1338.3766,560.62881)">
    <g
       id="g1149">
      <path
         d="m 1286.4,257.413 c -1.04,19.362 -1.93,43.179 -17.25,57.219 -8.93,8.193 -20.71,13.338 -32.68,15.756 -0.69,6.001 -1.86,11.988 -3.19,17.828 -1.85,8.2 -4.25,16.277 -7.17,24.161 -2.41,6.532 -5.18,12.803 -10.37,17.641 -10.38,9.675 -26.2,11.362 -39.83,8.023 -6.07,10.755 -16.12,19.711 -28.4,21.835 -14.02,2.423 -30.22,-2.651 -40.11,-13.319 -7.69,3.071 -16.34,3.17 -24.51,1.643 -10.37,-1.938 -21.92,-6.227 -27.1,-16.071 -3.31,-6.279 -4.58,-13.605 -4.58,-20.96 -4.44,0.704 -9.33,0.446 -14.28,-0.253 -11.64,-1.641 -24.44,-5.628 -30.12,-16.923 -4.75,-9.432 -2.61,-21.723 -2.14,-31.903 0.67,-14.455 1.34,-28.909 1.68,-43.377 0.63,-27.092 2.18,-54.025 6.05,-80.874 1.77,-12.311 3.95,-24.643 7.41,-36.605 3.18,-10.998 7.54,-21.704 11.73,-32.344 6.71,-17.018 13.74,-33.9177 21,-50.7119 -3.43,-11.1543 -5.77,-24.0644 -1.65,-35.1961 4.06,-10.9648 13.51,-15.6011 24.13,-18.4554 22.89,-6.1504 47.82,-8.4512 71.48,-8.5266 10.43,-0.0285 20.85,-0.6383 31.28,0.0797 13.74,0.9469 27.25,3.8027 40.21,8.4879 10.92,3.9496 21.26,9.5019 26.25,20.5715 3.66,8.1402 3.79,17.0449 2.04,25.6836 -0.74,3.632 -1.87,7.2976 -3.33,10.7753 12.29,21.172 23.64,43.014 32.22,65.971 5.69,15.226 10.03,31.128 10.83,47.431 1.01,20.757 1.51,41.652 0.4,62.413 z m -15.42,-62.798 c -1.24,-24.512 -12.16,-50.197 -23.29,-72.696 -4.36,-8.836 -9.02,-17.529 -13.88,-26.1073 -2.37,-4.1984 -7.35,-9.7984 -6.68,-14.8086 0.19,-1.3886 0.8,-2.489 1.36,-3.7164 0.22,-0.4812 0.43,-0.9613 0.65,-1.4441 0.06,-0.1563 0.13,-0.3457 0.22,-0.6106 0.67,-1.9031 1.33,-3.7957 1.84,-5.7511 1.1,-4.2543 1.69,-8.0727 1.08,-12.4746 -2.24,-16.2407 -23.56,-20.5317 -37.29,-23.4903 -16.09,-3.4687 -32.17,-2.5605 -48.49,-2.516 -14.87,0.0473 -29.83,1.3453 -44.54,3.5031 -7.17,1.052 -14.33,2.2934 -21.36,4.0731 -5.04,1.2773 -10.3,2.0711 -13.56,5.8258 -4.04,4.673 -3.61,12.3 -2.82,17.9921 0.89,6.4313 5.28,13.9832 2.64,20.1684 -3.42,7.9766 -6.83,15.9531 -10.16,23.9655 -11.5,27.674 -23.13,55.167 -28.2,84.853 -5.87,34.387 -6.36,68.945 -7.65,103.691 -0.36,9.668 -0.83,19.331 -1.27,28.996 -0.29,6.329 -1.36,13.374 -0.49,19.682 1.02,7.483 8.98,10.308 15.42,11.643 4.13,0.857 16.3,4.152 18.69,-1.24 3.44,-31.985 6.82,-64.042 8.8,-96.153 0.59,-9.59 15.59,-9.657 15,0 -2.01,32.729 -5.49,65.402 -9,98 -0.01,0.062 -0.02,0.122 -0.03,0.183 -0.02,0.575 -0.09,1.178 -0.24,1.811 -0.83,3.619 -0.86,4.259 -1.13,7.581 -0.47,5.685 -0.59,11.771 1.38,17.201 2.44,6.69 9.14,8.611 15.76,10.268 6.24,1.561 12.75,1.824 18.55,-0.67 1.85,-29.528 3.84,-59.053 6.19,-88.545 0.75,-9.45 1.53,-18.901 2.52,-28.329 0.42,-4.028 3.14,-7.5 7.5,-7.5 3.73,0 7.93,3.446 7.5,7.5 -3.85,36.606 -5.92,73.441 -8.28,110.166 -0.2,3.038 -0.39,6.076 -0.58,9.114 1.52,1.641 3.03,3.277 4.81,4.62 6.29,4.729 14.99,7.184 22.79,5.792 6.26,-1.118 11.6,-5.374 15.24,-10.169 1.53,-2.009 2.85,-4.216 4,-6.459 0.17,-0.32 0.32,-0.646 0.47,-0.973 -1.28,-37.101 -2.03,-74.546 0.55,-111.591 0.67,-9.576 15.67,-9.65 15,0 -2.49,35.659 -1.88,71.687 -0.69,107.424 8.99,2.275 19.64,2.289 26.58,-4.75 4.13,-4.181 5.79,-10.147 7.62,-15.565 2.24,-6.642 4.12,-13.409 5.62,-20.257 1.23,-5.643 2.18,-10.484 2.65,-15.75 -7.7,-7.855 -10.98,-20.806 -13.45,-30.863 -5.65,-22.972 -8.01,-46.837 -9.88,-70.417 -30.18,-9.445 -53.86,-36.808 -61.68,-66.828 -2.44,-9.348 12.02,-13.336 14.46,-3.988 5.01,19.215 16.34,35.832 32.95,46.844 2.95,1.957 6.01,3.748 9.16,5.364 1.4,0.72 2.83,1.389 4.26,2.052 0.21,0.097 1.2,0.521 1.43,0.622 0.36,0.147 0.72,0.296 1.08,0.434 2.42,0.921 4.86,1.841 7.38,2.446 3.39,0.814 5.26,3.991 5.51,7.232 1.83,23.833 3.96,47.957 9.55,71.257 0.87,3.644 1.85,7.268 3,10.835 0.49,1.525 1.01,3.04 1.58,4.539 0.22,0.564 0.44,1.125 0.67,1.684 0.12,0.269 0.41,0.951 0.49,1.109 1.02,2.143 2.16,4.163 3.44,6.158 0.06,0.101 0.12,0.185 0.16,0.26 0.05,0.05 0.09,0.103 0.13,0.154 0.68,-0.136 1.36,-0.277 2.04,-0.433 4.56,-1.056 9.12,-2.442 13.36,-4.432 5.15,-2.422 10,-5.495 13.79,-9.796 4.14,-4.702 5.75,-10.448 7.02,-16.459 3.23,-15.214 3.6,-31.079 3.73,-46.576 0.12,-14.556 -0.24,-29.146 -0.98,-43.685"
         style="fill:#231f20;fill-opacity:1;fill-rule:nonzero;stroke:none;stroke-width:0.1"
         id="path32" />
      <path
         style="fill:#deaa87;stroke-width:1.00583"
         d="m 1516.6514,34.722906 c -11.2783,-0.319484 -21.8773,6.718735 -28.5583,15.264327 3.3072,52.821047 6.9355,105.635337 11.5671,158.350207 1.3745,9.09743 -13.268,12.181 -15.9106,3.63043 -5.1925,-37.56494 -6.7598,-75.87477 -9.6186,-113.819552 -1.0455,-15.296478 -1.9495,-30.604595 -3.2746,-45.880276 -9.5806,-5.005345 -21.6311,-2.828509 -31.7781,0.04911 -8.3455,2.344182 -17.3091,8.098403 -17.3546,17.782842 -1.8362,29.155688 4.5285,58.048166 6.6137,87.024476 2.2403,25.4524 5.29,50.95396 6.0378,76.44527 -0.8881,9.32805 -16.7658,8.15289 -16.5589,-1.17085 -4.4152,-43.04143 -6.2674,-86.62482 -13.2134,-129.45407 -1.2442,-5.204665 -8.4484,-3.646279 -12.457,-3.870108 -11.9871,1.255568 -27.1944,2.644198 -33.5147,14.568888 -2.6436,8.95506 -0.1508,18.68447 -0.5868,27.89359 2.6525,55.17782 2.6005,110.63014 9.8593,165.4742 6.5868,54.45832 30.9007,104.27063 51.0264,154.61063 3.9852,8.28874 2.9142,17.56643 -0.106,25.96419 -2.9089,11.11741 -3.9379,26.69164 7.4239,33.4833 15.5573,6.73177 32.8439,8.19588 49.4196,11.03949 35.4782,5.38466 71.5379,3.88998 107.2431,2.21513 17.0064,-2.31227 34.4732,-6.2578 49.2093,-15.41559 11.2884,-6.89121 14.6818,-21.49861 11.0921,-33.64174 -1.3744,-8.79504 -9.0003,-18.46365 -2.8102,-27.02177 19.771,-33.00452 37.5049,-67.6593 48.8405,-104.53698 8.8261,-28.22691 7.1215,-58.19841 7.876,-87.38384 -0.5357,-27.918 0.7877,-56.8944 -8.9349,-83.5334 -6.6543,-15.63434 -23.7057,-22.90428 -38.7855,-27.98067 -3.8653,-1.60636 -8.9219,-1.28445 -10.3236,3.37111 -11.53,23.17031 -14.3856,49.42116 -18.2013,74.69501 -2.8502,18.18265 -2.705,36.90806 -6.644,54.79246 -5.0208,5.02241 -13.1024,5.1734 -19.0637,8.86785 -27.3705,11.92198 -49.0684,35.53219 -58.6861,63.78995 -2.1672,5.90479 -3.5953,16.09852 -12.2862,14.41762 -6.8501,-0.80764 -8.684,-8.84811 -6.0192,-14.33511 10.6538,-33.63392 34.3646,-63.74565 66.767,-78.63543 4.4046,-3.06565 10.6811,-3.40524 14.35,-7.30057 3.4958,-36.98772 6.6122,-74.73293 18.2005,-110.27205 2.4751,-8.90057 7.8051,-16.49135 12.0236,-24.50783 1.1546,-9.47246 -2.8199,-18.89207 -4.5418,-28.13103 -4.4652,-14.072131 -6.2493,-30.273376 -16.6966,-41.501416 -9.5056,-9.500077 -24.3967,-9.263971 -36.6363,-6.618471 -2.0084,8.455015 -0.6339,18.169948 -1.3608,27.102231 -1.0215,40.361036 -0.6103,80.766376 1.624,121.081586 -3.803,7.01971 -16.2606,5.54391 -16.8261,-2.85445 -3.5064,-38.30618 -2.2171,-76.91584 -2.0289,-115.359416 0.032,-12.13066 0.5429,-24.327892 0.2805,-36.417509 -6.6272,-11.294273 -17.2155,-23.859348 -31.7742,-22.275007 -1.6345,-0.02376 -3.2689,-0.003 -4.9034,0.0032 z"
         id="path1137"
         transform="matrix(0.75000002,0,0,-0.75000002,0,432.00001)" />
    </g>
  </g>
</svg>
