<?xml version="1.0" encoding="UTF-8" standalone="no"?>
<!-- Created with Inkscape (http://www.inkscape.org/) -->

<svg
   version="1.1"
   id="svg18"
   width="402.84418"
   height="435.8559"
   viewBox="0 0 402.84419 435.8559"
   sodipodi:docname="process_prs.svg"
   inkscape:version="1.2.2 (b0a8486541, 2022-12-01)"
   xmlns:inkscape="http://www.inkscape.org/namespaces/inkscape"
   xmlns:sodipodi="http://sodipodi.sourceforge.net/DTD/sodipodi-0.dtd"
   xmlns="http://www.w3.org/2000/svg"
   xmlns:svg="http://www.w3.org/2000/svg">
  <defs
     id="defs22" />
  <sodipodi:namedview
     id="namedview20"
     pagecolor="#ffffff"
     bordercolor="#000000"
     borderopacity="0.25"
     inkscape:showpageshadow="2"
     inkscape:pageopacity="0.0"
     inkscape:pagecheckerboard="0"
     inkscape:deskcolor="#d1d1d1"
     showgrid="false"
     showguides="true"
     inkscape:zoom="0.99419917"
     inkscape:cx="891.16952"
     inkscape:cy="287.66872"
     inkscape:window-width="2560"
     inkscape:window-height="1306"
     inkscape:window-x="1920"
     inkscape:window-y="32"
     inkscape:window-maximized="1"
     inkscape:current-layer="g26">
    <sodipodi:guide
       position="-621.80787,819.11143"
       orientation="0,-1"
       id="guide180"
       inkscape:locked="false" />
    <sodipodi:guide
       position="-114.86718,159.28388"
       orientation="1,0"
       id="guide184"
       inkscape:locked="false" />
  </sodipodi:namedview>
  <g
     id="g26"
     inkscape:groupmode="layer"
     inkscape:label="Page 1"
     transform="matrix(1.3333333,0,0,-1.3333333,-714.34465,454.26149)">
    <g
       id="g1145">
      <path
         d="m 795.29,85.2871 c 14.781,24.1469 38.883,41.9239 42.264,71.9079 1.133,10.057 -0.851,20.36 -2.04,30.333 -1.938,16.257 -3.057,32.939 -6.371,48.979 -2.395,11.592 -7.403,21.566 -17.771,27.8 -8.542,5.136 -18.511,8.251 -28.312,10.466 -1.424,8.1 -2.738,16.221 -3.987,24.348 -1.594,10.367 -2.491,21.692 -10.163,29.663 -6.848,7.116 -17.047,9.216 -26.437,10.502 -12.962,1.776 -26.443,2.68 -38.842,-2.313 -4.185,-1.685 -8.356,-3.942 -11.826,-6.945 -15.396,5.683 -34.258,2.118 -49.166,-2.978 -8.983,-3.071 -17.817,-8.51 -23.096,-16.527 -12.595,-1.478 -25.563,-4.424 -36.711,-10.298 -13.821,-7.284 -21.457,-22.453 -20.705,-37.732 -6.405,-4.126 -12.2,-9.526 -16.572,-15.623 -8.727,-12.167 -10.775,-31.04 -9.41,-45.56 1.416,-15.065 7.605,-27.417 16.607,-39.319 2.424,-3.205 4.939,-6.336 7.509,-9.421 0.005,-0.007 0.008,-0.015 0.014,-0.022 0.596,-0.808 1.242,-1.573 1.93,-2.302 1.007,-1.185 2.022,-2.364 3.045,-3.537 1.427,-1.633 2.871,-3.25 4.298,-4.883 0.5,-0.572 0.987,-1.157 1.491,-1.724 0.055,-0.061 0.095,-0.106 0.138,-0.152 10.673,-14.943 20.83,-30.394 30.61,-45.9352 3.338,-5.3039 6.271,-11.5066 4.061,-17.8289 -1.508,-4.3136 -3.607,-8.1648 -4.379,-12.7336 -2.452,-14.5085 5.325,-27.5421 16.818,-35.9765 11.336,-8.3192 26.281,-10.8899 39.924,-12.3965 14.069,-1.5539 28.244,-1.3688 42.373,-1.0793 17.474,0.382 35.002,1.4965 52.179,4.8977 14.023,2.7765 31.482,6.264 40.315,18.6445 6.218,8.7141 6.444,20.2691 3.922,30.3117 -0.487,1.9422 -1.109,3.8473 -1.834,5.7137 -0.534,1.375 -1.431,4.8047 -2.644,6.0488 0.023,0.0684 0.043,0.1262 0.068,0.2121 0.469,1.6442 1.559,3.5945 2.7,5.4586 z M 704.271,320.629 c 0.959,0.6 1.95,1.162 2.97,1.652 1.911,0.918 3.945,1.579 6.013,2.117 7.534,1.963 15.305,1.472 22.971,0.656 5.573,-0.594 11.436,-1.306 16.68,-3.391 3.063,-1.218 5.441,-3.037 6.802,-5.372 2.33,-4 3.157,-9.55 3.926,-14.695 1.404,-9.389 2.879,-18.77 4.494,-28.126 -12.8,-6.938 -27.084,-10.541 -41.6,-11.156 -5.524,-0.234 -11.486,-0.237 -16.972,-1.656 -6.072,9.125 -10.209,19.815 -13.012,30.299 -0.686,2.564 -1.382,5.226 -1.692,7.869 -0.094,0.801 -0.092,1.776 -0.14,2.651 -0.016,0.278 0.126,1.554 0.085,1.523 0.915,4.743 3.052,9.714 5.18,14.041 0.874,0.784 1.656,1.647 2.553,2.41 0.099,0.029 1.557,1.062 1.742,1.178 z m -56.113,-7.548 c 10.406,3.196 24.123,6.839 35.435,3.905 -1.365,-3.378 -2.536,-6.842 -3.312,-10.293 -1.281,-5.7 -0.138,-11.764 1.194,-17.349 3.006,-12.603 8.079,-25.961 15.486,-36.808 -3.369,-4.528 -5.115,-10.245 -6.737,-15.746 -2.319,-7.858 -4.085,-16.073 -4.78,-24.289 -9.819,-2.788 -20.323,9.921 -25.43,16.375 -6.65,8.407 -12.44,17.732 -18.127,26.806 -5.088,8.117 -10.682,16.654 -13.735,25.803 -1.784,5.347 -0.885,13.128 2.408,18.23 0.046,0.071 0.779,1.498 1.153,2.139 1.005,1.723 0.671,1.189 2.301,2.898 3.854,4.04 8.838,6.7 14.144,8.329 z m -69.631,-39.456 c 2.367,7.521 7.95,12.116 14.952,15.131 6.066,2.612 12.64,4.218 19.13,5.478 -2.568,-17.061 8.799,-34.323 17.849,-48.534 9.334,-14.657 22.931,-38.363 40.738,-45.904 -3.843,-6.229 -8.475,-12.948 -13.23,-15.729 -4.228,-2.472 -13.344,-3.421 -19.143,-1.924 -1.848,0.477 -3.59,1.126 -5.251,2.07 -0.753,0.429 -1.467,0.907 -2.174,1.399 -0.016,0.014 -0.033,0.029 -0.048,0.043 -1.224,1.162 -2.396,2.353 -3.521,3.614 -14.766,16.551 -27.271,36.717 -39.806,55.564 -3.619,5.444 -7.218,10.902 -10.771,16.39 -0.065,0.808 -0.123,1.616 -0.137,2.43 -0.06,3.429 0.38,6.693 1.412,9.972 z m -23.293,-39.888 c 2.399,5.797 7.243,10.736 12.575,14.532 9.492,-14.561 19.202,-28.993 29.248,-43.172 6.707,-9.465 13.406,-19.312 21.383,-27.771 1.473,-1.563 3.072,-2.939 4.765,-4.149 -0.802,-0.924 -1.617,-1.837 -2.448,-2.736 -4.427,-4.79 -9.245,-9.498 -15.021,-12.634 -5.616,-3.05 -12.386,-3.415 -18.632,-2.675 -3.395,0.403 -9.431,1.58 -12.523,3.738 -7.099,8.326 -14.188,16.65 -19.1,26.545 -6.942,13.986 -6.16,34.031 -0.247,48.322 z M 786.791,99.3695 c -5.362,-7.2851 -12.312,-17.1136 -7.811,-26.4011 2.703,-5.5762 5.283,-12.2403 4.453,-19.5059 C 781.903,40.0492 765.945,37.3082 754.98,34.7109 737.161,30.491 718.836,29.3992 700.584,29 c -11.385,-0.2332 -22.779,-0.3953 -34.149,0.3605 -11.297,0.7508 -23.445,2.1297 -33.799,7.0317 -8.803,4.1683 -18.015,12.9715 -16.627,23.5656 0.608,4.634 2.264,7.0363 3.807,11.0485 2.709,7.0437 2.118,14.8835 -0.597,21.8312 -3.359,8.5975 -9.377,16.3475 -14.431,24.0125 -5.032,7.634 -10.093,15.251 -15.232,22.814 6.629,-0.221 13.187,0.777 18.585,2.828 11.93,4.535 21.702,14.594 29.494,24.685 7.944,-1.468 16.439,-0.581 24.047,2.245 7.659,2.846 12.646,9.509 17.371,15.862 2.582,3.471 5.029,7.06 7.335,10.728 1.008,-3.467 2.719,-6.691 5.502,-9.479 3.317,-3.324 7.285,-5.955 11.581,-8.085 -11.066,-8.435 -21.275,-18.628 -26.375,-31.303 -3.996,-9.934 -5.871,-20.829 -6.582,-31.474 -0.625,-9.372 -0.496,-20.1765 4.333,-28.5487 4.822,-8.3594 17.789,-0.8145 12.953,7.5711 -3.09,5.3566 -2.739,14.7596 -2.239,21.6226 0.657,8.988 2.358,18.542 6,26.841 5.389,12.279 18.118,21.877 29.262,29.284 2.413,-0.577 4.81,-1.075 7.145,-1.518 12.029,-2.28 24.077,-4.465 36.122,-6.655 9.438,-1.716 13.486,12.737 3.988,14.464 -9.242,1.681 -18.482,3.371 -27.719,5.084 -10.534,1.954 -21.255,3.618 -30.88,8.618 -5.385,2.798 -9.024,5.314 -9.309,11.382 -0.368,7.817 1.091,15.67 2.959,23.225 1.316,5.327 2.548,15.888 8.241,18.46 5.762,2.604 13.359,1.643 19.5,2.026 15.782,0.983 31.647,5.623 45.51,13.367 8.306,-1.739 16.915,-3.983 24.418,-7.87 7.167,-3.711 10.511,-7.557 12.796,-15.908 3.917,-14.314 4.543,-29.797 6.31,-44.495 1.151,-9.572 2.981,-19.403 3.014,-29.066 0.087,-25.886 -21.912,-44.869 -36.127,-64.1855"
         style="fill:#231f20;fill-opacity:1;fill-rule:nonzero;stroke:none;stroke-width:0.1"
         id="path34" />
      <path
         style="fill:#deaa87;stroke-width:1.00583"
         d="m 1036.7778,227.74494 c -9.7341,1.46865 -18.0022,7.75325 -27.5818,9.99548 -15.72091,5.50699 -32.1896,6.81337 -48.65822,7.229 -7.27507,0.5588 -16.54211,1.85567 -19.14135,9.96056 -5.44266,15.75073 -9.1196,32.48027 -9.17039,49.19749 0.97286,12.4652 14.61306,17.46547 24.64099,21.1186 22.88252,7.18289 47.16547,8.47621 70.03717,15.48828 5.8045,4.76658 1.164,16.09645 -6.6224,14.60032 -19.6951,-2.2348 -39.21332,-7.6425 -58.91405,-9.9719 -10.57483,4.85227 -19.37584,13.22027 -27.68207,21.26397 -18.13773,18.29059 -21.95447,45.63678 -20.84656,70.2797 -0.49529,7.14447 4.7929,13.6224 3.48412,20.64029 -2.55344,5.64622 -11.3297,8.15708 -14.7732,1.96649 -8.4169,-14.09931 -6.77167,-31.74211 -5.0872,-47.45458 2.21172,-22.56113 10.87745,-45.22897 28.11729,-60.68444 4.35195,-4.88575 11.06016,-8.17873 14.32528,-13.73397 -4.15998,-3.91572 -10.40897,-5.5798 -14.08954,-10.25676 -4.33926,-3.71223 -6.30228,-9.3453 -9.55739,-13.70843 -10.61888,12.09572 -18.58946,29.07911 -34.65808,35.4989 -10.02261,4.18974 -21.19764,2.61624 -31.68772,3.45558 -13.40899,16.81803 -30.50891,33.71784 -53.09707,35.19832 -3.43132,0.48467 -7.09897,0.17168 -10.38839,1.27498 0.36198,5.02172 5.67668,9.04767 7.82889,13.68471 10.6242,17.20373 23.76027,33.14395 31.62458,51.8517 3.3399,11.0577 2.48331,23.33126 -2.62429,33.72049 -4.54134,11.07841 -0.89419,24.18888 8.30765,31.71574 17.98584,16.01999 43.6199,17.18605 66.47349,18.48025 43.19432,0.72319 87.43483,0.48872 128.97076,-12.85779 11.0712,-3.28971 21.1306,-13.16699 19.9556,-25.45823 0.383,-13.42004 -11.5642,-25.53399 -5.8798,-38.92501 9.5197,-20.41517 26.8,-35.8554 39.4232,-54.36739 11.5217,-15.18692 20.4263,-33.604 18.8386,-53.13905 -2.6365,-27.83548 -5.5028,-55.72201 -9.9999,-83.33117 -2.0638,-12.46888 -6.2804,-26.76523 -18.978,-32.24296 -10.1233,-5.051 -21.2461,-9.51313 -32.5902,-10.48917 z"
         id="path1127"
         transform="matrix(0.75000002,0,0,-0.75000002,0,432.00001)" />
      <path
         style="fill:#deaa87;stroke-width:1.00583"
         d="m 756.39357,243.71256 c -19.08848,13.15751 -24.97845,37.89137 -23.46424,59.84913 1.21098,23.89165 16.58404,43.97534 32.21814,60.81763 9.39268,7.129 22.42352,6.97251 33.61492,5.51638 14.00636,-2.58143 23.38664,-14.37671 33.28487,-23.48781 -2.32232,-5.72352 -8.92623,-9.67 -12.63494,-15.01874 -22.79619,-27.68787 -41.44213,-58.92127 -62.33117,-87.90447 z"
         id="path1129"
         transform="matrix(0.75000002,0,0,-0.75000002,0,432.00001)" />
      <path
         style="fill:#deaa87;stroke-width:1.00583"
         d="m 815.52172,182.4313 c -16.17879,3.85347 -36.01381,8.19222 -43.75971,24.88655 -2.7515,6.50512 -4.57581,14.27574 -3.34064,21.0577 21.61165,31.68456 41.16572,65.01406 66.15338,94.23389 6.26651,7.86703 15.72497,13.45108 26.05236,12.31779 9.84769,0.70683 20.12066,-2.86944 25.81577,-11.28224 3.09686,-4.4538 7.85092,-8.5103 9.18414,-13.8322 -4.71365,-4.53386 -11.24635,-7.16155 -15.68405,-12.23944 -21.43367,-19.35419 -35.12775,-45.17459 -49.84844,-69.59464 -7.61402,-12.91718 -13.07189,-27.44013 -12.23307,-42.67135 -0.0602,-1.31059 -0.67075,-3.17576 -2.33974,-2.87606 z"
         id="path1131"
         transform="matrix(0.75000002,0,0,-0.75000002,0,432.00001)" />
      <path
         style="fill:#deaa87;stroke-width:1.00583"
         d="m 897.36169,151.48617 c -18.20768,0.3005 -37.80203,4.16922 -51.77495,16.59037 -11.29379,10.42742 -13.02777,28.19971 -5.79533,41.42193 11.03434,21.92703 24.67179,42.55131 39.37709,62.1794 8.31526,10.01158 18.10507,22.10927 32.10789,23.02383 6.44674,-0.74263 3.90089,-8.81134 5.42208,-13.09549 2.77867,-14.92575 7.20108,-29.61799 13.58073,-43.23518 -11.08963,-18.02128 -19.69547,-38.31901 -21.88477,-59.49259 -1.12488,-8.68682 1.48188,-17.22546 3.86029,-25.48079 -1.33006,-3.34605 -6.77594,-1.12828 -9.69687,-1.90559 -1.73206,-0.0183 -3.46406,-0.0171 -5.19616,-0.006 z"
         id="path1133"
         transform="matrix(0.75000002,0,0,-0.75000002,0,432.00001)" />
      <path
         style="fill:#deaa87;stroke-width:1.00583"
         d="m 966.34387,140.64987 c -14.14655,-0.27661 -31.52071,3.71722 -37.11569,18.48811 -3.95771,8.46437 -5.52654,18.06385 -2.30634,27.05244 4.08141,15.08961 9.87926,30.30331 18.32662,43.23367 23.68263,-2.2904 48.35908,-2.2782 70.44414,-12.51545 3.3169,-2.15227 11.4828,-2.59351 9.2171,-8.37022 -2.7781,-17.08252 -4.7266,-34.43461 -9.2112,-51.15869 -4.4174,-12.30937 -19.27774,-13.93718 -30.39275,-15.63592 -6.28514,-0.79763 -12.62633,-1.17111 -18.96188,-1.09394 z"
         id="path1135"
         transform="matrix(0.75000002,0,0,-0.75000002,0,432.00001)" />
    </g>
  </g>
</svg>
