<?xml version="1.0" encoding="UTF-8" standalone="no"?>
<!-- Created with Inkscape (http://www.inkscape.org/) -->

<svg
   version="1.1"
   id="svg18"
   width="362.52527"
   height="541.15076"
   viewBox="0 0 362.52528 541.15076"
   xmlns="http://www.w3.org/2000/svg"
   xmlns:svg="http://www.w3.org/2000/svg">
  <defs
     id="defs22" />
  <g
     id="g26"
     transform="matrix(1.3333333,0,0,-1.3333333,-128.4918,556.3647)">
    <g
       id="g1157">
      <path
         d="m 357.512,244.433 c -5.237,10.769 -11.948,21.262 -19.788,30.435 2.322,26.19 4.689,52.387 6.537,78.614 1.195,16.966 -2.016,34.774 -18.168,43.77 -15.325,8.536 -38.598,9.443 -52.942,-1.785 -3.318,12.096 -14.003,18.556 -26.089,20.601 -13.786,2.333 -29.586,2.146 -40.071,-8.538 -8.128,-8.282 -9.267,-19.294 -10.577,-30.209 -1.26,-10.498 -2.442,-21.007 -3.621,-31.514 -1.895,-16.897 -3.753,-33.797 -5.591,-50.7 -10.418,-1.943 -21.481,-5.439 -29.732,-11.667 -7.029,-5.305 -12.407,-12.682 -16.25,-20.635 -10.949,-1.869 -21.988,-6.205 -30.013,-13.8 -8.199,-7.761 -13.4859,-21.068 -14.5836,-32.232 -0.6418,-6.528 0.0411,-13.142 0.8192,-19.627 1.3203,-11.01 2.9514,-22.042 5.0194,-32.935 4.013,-21.143 10.505,-41.825 17.723,-62.071 3.915,-10.9826 8.085,-21.8935 12.628,-32.6365 -3.828,-15.6879 -6.692,-34.4441 9.013,-44.3656 7.248,-4.5781 16.527,-7.1012 24.775,-9.0379 12.357,-2.9012 25.157,-3.9277 37.816,-4.3187 18.751,-0.5797 37.652,-0.7067 56.322,1.332 10.575,1.1547 21.206,2.7176 31.457,5.6203 8.392,2.3758 17.464,5.6418 23.798,11.8973 11.124,10.9855 11.656,29.3289 7.944,44.016 6.364,7.8472 12.382,16.0445 17.816,24.5371 7.588,11.861 12.168,24.56 16.06,38.011 5.04,17.418 8.914,35.384 10.177,53.503 1.32,18.947 -2.167,36.641 -10.479,53.735 z M 279.443,380.78 c 0.612,0.812 2.931,3.047 4.468,4.017 2.754,1.739 5.786,2.756 8.999,3.294 7.729,1.294 16.978,0.334 24.106,-3.011 12.754,-5.984 13.089,-19.682 12.217,-31.988 -1.023,-14.435 -2.263,-28.855 -3.487,-43.274 -0.67,-7.89 -1.36,-15.778 -2.047,-23.666 -5.38,2.898 -11.23,5.07 -16.8,6.835 -10.26,3.252 -20.613,4.533 -31.196,2.122 -0.601,-0.136 -1.189,-0.289 -1.773,-0.447 0.143,12.493 0.281,24.987 0.391,37.481 0.103,11.592 2.147,44.689 5.122,48.637 z m -69.562,-16.557 c 0.832,7.234 1.405,16.02 2.789,22.385 2.543,11.697 11.367,16.171 22.842,15.748 9.437,-0.348 21.462,-1.775 23.554,-12.372 1.336,-6.768 0.368,-44.702 0.284,-54.522 -0.138,-16.166 -0.307,-32.331 -0.5,-48.496 -6.076,-5.02 -10.366,-11.73 -12.848,-19.358 -3.481,4.543 -7.263,8.853 -11.607,12.462 -9.02,7.491 -20.419,12.997 -32.176,15.158 1.311,12.056 2.63,24.111 3.967,36.164 1.214,10.946 2.437,21.89 3.695,32.831 z M 167.426,272.19 c 7.601,5.031 17.649,7.527 26.737,8.973 0.59,-0.033 1.177,-0.1 1.766,-0.151 0.038,-0.003 0.067,-0.006 0.1,-0.008 0.273,-0.04 0.546,-0.076 0.816,-0.125 1.321,-0.24 2.64,-0.474 3.95,-0.772 5.971,-1.354 11.667,-3.47 16.959,-6.565 13.978,-8.176 22.932,-23.508 31.049,-37.044 3.963,-6.609 7.712,-13.348 11.243,-20.197 1.234,-2.394 2.444,-4.801 3.605,-7.231 0.439,-0.918 0.875,-1.836 1.293,-2.764 0.531,-1.179 0.62,-1.508 0.677,-1.683 1.768,-5.493 1.717,-11.817 -1.642,-16.738 -2.833,-4.15 -7.729,-6.555 -12.189,-8.06 -13.968,-4.712 -28.95,-1.843 -38.238,10.212 -3.467,6.859 -8.031,13.341 -12.219,19.699 -4.853,7.368 -9.845,14.653 -15.03,21.792 -8.399,11.564 -18.205,20.187 -30.134,27.466 0.309,0.542 0.609,1.088 0.932,1.62 2.683,4.416 5.974,8.696 10.325,11.576 z m -54.054,-48.594 c 0.165,0.489 0.364,0.967 0.551,1.447 0.028,0.073 0.05,0.131 0.067,0.175 0.014,0.034 0.025,0.057 0.041,0.095 0.457,1.044 0.942,2.075 1.431,3.104 1.194,2.51 2.306,5.269 4.002,7.481 4.119,5.375 10.879,8.433 17.183,10.371 2.617,0.804 5.284,1.454 7.976,1.947 0.081,0.015 0.163,0.026 0.244,0.04 6.471,-3.597 12.825,-7.523 18.288,-12.542 1.535,-1.41 2.988,-2.9 4.403,-4.43 0.503,-0.544 1.002,-1.093 1.493,-1.649 0.258,-0.292 0.494,-0.602 0.744,-0.902 0.053,-0.065 0.099,-0.119 0.137,-0.165 0.018,-0.023 0.033,-0.044 0.057,-0.074 8.99,-11.681 17.215,-24.101 24.99,-36.614 1.516,-2.44 3.235,-4.973 4.693,-7.613 0.18,-0.607 0.452,-1.187 0.852,-1.71 0.031,-0.041 0.064,-0.081 0.096,-0.122 1.903,-3.896 3.038,-8.019 1.975,-12.414 -1.659,-6.853 -7.5,-12.04 -14.015,-14.206 -8.704,-2.895 -18.539,-3.282 -27.544,-1.738 -7.715,1.321 -13.817,4.261 -20.227,8.643 -9.626,6.579 -18.505,14.52 -26.711,22.798 -0.291,1.842 -0.581,3.686 -0.846,5.536 -1.682,11.717 -3.169,22.78 0.12,32.542 z m 231.36,-77.495 c -3.942,-14.451 -8.436,-27.819 -16.643,-40.45 -4.117,-6.3373 -8.565,-12.474 -13.228,-18.4213 -2.972,-3.7902 -7.489,-7.6695 -6.416,-12.9133 1.936,-9.4691 4.711,-19.8406 -0.247,-29.2519 -3.146,-5.9723 -9.866,-8.625 -15.955,-10.6348 -8.102,-2.6742 -16.562,-4.3133 -24.996,-5.5106 -14.552,-2.0652 -29.118,-2.4097 -43.783,-2.3523 -20.634,0.0812 -41.43,0.1258 -61.314,6.3445 -2.877,0.8996 -5.811,1.7879 -8.584,2.9825 -0.31,0.1335 -2.03,0.9636 -2.826,1.4074 -0.565,0.3144 -1.117,0.6449 -1.66,0.9941 -0.624,0.4008 -0.716,0.4324 -0.725,0.4324 0.005,0.0032 -0.007,0.0434 -0.366,0.3711 -0.344,0.3133 -0.676,0.636 -0.998,0.9727 -0.13,0.1367 -0.227,0.2351 -0.309,0.3176 -0.009,0.0132 -0.014,0.0211 -0.024,0.0351 -0.227,0.325 -1.223,2.3199 -1.094,1.8832 -1.102,2.9074 -1.024,4.6547 -0.883,7.9637 0.147,3.4355 0.733,6.793 1.433,10.1543 0.962,4.6234 2.897,8.9637 0.955,13.5406 -0.183,0.4313 -0.26,0.6094 -0.283,0.6613 -0.07,0.168 -0.162,0.3907 -0.291,0.702 -0.919,2.2191 -1.828,4.4422 -2.721,6.6719 -10.318,25.7528 -18.929,51.8878 -24.941,78.7758 4.331,-3.633 8.798,-7.097 13.4,-10.314 16.609,-11.612 37.343,-14.999 57.063,-10.059 14.111,3.534 25.369,14.446 27.999,27.657 8.968,-4.766 19.28,-6.479 30.362,-4.688 15.376,2.484 30.851,11.729 33.549,28.253 2.401,14.704 -5.542,27.587 -12.327,39.998 -3.299,6.032 -6.762,11.981 -10.422,17.804 -0.212,7.663 0.771,15.652 5.547,21.933 4.096,5.387 10.332,8.225 16.824,9.527 7.525,1.51 14.879,-0.083 22.083,-2.365 7.588,-2.403 16.135,-5.658 21.786,-11.484 0.103,-0.107 0.21,-0.197 0.316,-0.296 0.13,-0.169 0.251,-0.337 0.393,-0.507 3.448,-4.127 6.152,-7.64 9.253,-12.261 10.45,-15.57 18.341,-32.999 18.658,-52.01 0.314,-18.876 -3.64,-37.738 -8.585,-55.864"
         style="fill:#231f20;fill-opacity:1;fill-rule:nonzero;stroke:none;stroke-width:0.1"
         id="path30" />
      <path
         style="fill:#deaa87;stroke-width:1.00583"
         d="m 381.13865,199.44601 c -15.48768,0.52636 -32.0405,9.64816 -35.70516,25.66843 -1.45546,6.35241 -2.67377,13.37586 -1.54011,19.6579 10.67121,19.14215 24.02344,37.57816 29.16913,59.16261 2.39932,14.11164 -1.28338,30.56455 -13.44697,39.71869 -18.93233,15.5499 -46.6244,17.94302 -68.67393,7.66555 -3.7683,-1.08539 -2.45057,4.2766 -4.20211,6.06644 -4.48588,11.26219 -12.80905,20.45021 -23.7871,25.72291 -18.51912,8.88855 -40.6039,8.64635 -60.21188,3.37361 -16.58174,-4.38712 -29.68206,-15.88537 -43.69291,-25.03389 -3.32132,1.57376 0.3938,6.87055 0.26914,9.72831 8.65922,36.02734 21.24784,70.99084 34.63843,105.43584 4.2027,9.41779 -1.89235,19.27795 -2.01167,28.93935 -1.21283,7.91817 -0.008,17.93508 8.19205,21.67063 34.62649,15.70149 73.66028,14.82471 110.88317,14.56651 30.31322,-0.95592 61.76007,-2.39378 89.86532,-14.88476 12.43024,-5.9691 16.62901,-20.99195 14.56957,-33.76065 -0.66924,-9.00204 -5.80304,-19.39496 1.18982,-27.23969 15.70052,-19.34916 30.27306,-40.31819 38.02526,-64.31645 10.02045,-30.56541 18.32926,-62.36585 17.02454,-94.80778 1.49065,-24.71069 -10.77313,-47.44174 -23.0674,-67.97242 -7.7794,-12.33619 -16.93686,-25.09446 -31.23588,-30.2379 -11.43296,-4.77017 -23.69424,-9.31958 -36.25131,-9.12324 z"
         id="path1002"
         transform="matrix(0.75000002,0,0,-0.75000002,0,432.00001)" />
      <path
         style="fill:#deaa87;stroke-width:1.00583"
         d="m 257.82175,200.65812 c -19.55898,1.50422 -40.53568,10.06734 -50.13232,28.22725 -1.73114,4.95469 7.3264,6.4894 10.23437,9.93867 28.28813,21.53446 46.07275,53.65684 65.24093,83.08472 8.28967,13.08526 24.45074,19.61155 39.62463,17.91525 13.17513,-0.6791 29.56369,-6.36962 32.9834,-20.70725 2.97271,-10.46335 -1.76946,-20.63152 -6.78939,-29.57978 -11.21267,-20.88584 -22.15579,-42.30489 -37.24296,-60.71649 -10.43888,-12.63497 -24.0825,-22.98353 -40.28543,-26.7045 -4.44714,-1.11634 -9.04937,-1.62617 -13.63323,-1.45787 z"
         id="path1006"
         transform="matrix(0.75000002,0,0,-0.75000002,0,432.00001)" />
      <path
         style="fill:#deaa87;stroke-width:1.00583"
         d="m 191.45238,244.11529 c -14.51081,2.60989 -30.49344,8.91154 -36.93692,23.311 -10.1392,17.9827 -7.60798,39.47744 -3.88779,58.85312 3.85187,9.90737 14.15864,15.18483 21.43096,22.35624 15.13955,12.98555 33.3162,24.46249 53.93788,24.46615 16.10147,0.55818 35.58872,-3.54541 43.60255,-19.09122 5.71002,-10.16872 -0.12416,-21.45948 -5.87034,-30.09878 -12.94242,-20.43179 -25.52706,-41.41457 -41.67304,-59.5148 -8.48772,-7.94591 -17.81963,-15.73472 -28.65253,-20.1383 -0.64196,-0.12253 -1.29783,-0.16992 -1.95077,-0.14341 z"
         id="path1008"
         transform="matrix(0.75000002,0,0,-0.75000002,0,432.00001)" />
      <path
         style="fill:#deaa87;stroke-width:1.00583"
         d="m 308.59479,38.807145 c -14.85657,-1.023633 -27.18169,13.056207 -27.17522,27.387385 -4.85196,38.7312 -8.58654,77.6264 -13.31159,116.35071 4.92607,3.21186 11.99768,3.05915 17.49406,6.00947 15.55288,5.73827 28.82731,16.10114 39.31181,28.82124 4.42745,6.95892 5.97113,-3.882 8.38676,-7.01899 3.38219,-6.40062 8.6364,-11.41953 13.13675,-16.92238 0.059,-44.04849 1.71526,-88.12044 0.5542,-132.156872 0.76939,-10.537235 -7.62234,-19.738051 -17.83216,-21.207376 -6.75665,-1.381959 -13.70471,-1.253452 -20.56461,-1.263187 z"
         id="path1010"
         transform="matrix(0.75000002,0,0,-0.75000002,0,432.00001)" />
      <path
         style="fill:#deaa87;stroke-width:1.00583"
         d="m 398.25552,56.444613 c -11.30074,0.226222 -26.04539,4.56643 -28.76648,17.13848 -4.93807,28.222617 -4.07139,57.065417 -5.44334,85.597137 -0.0109,7.9722 -0.75756,16.03214 0.008,23.96026 4.39593,1.9339 9.85503,-0.94252 14.65729,-0.64829 18.17841,-1.07872 35.37235,5.63198 51.8771,12.52382 3.74804,-1.20265 2.10659,-7.04165 3.15698,-10.04853 2.44331,-31.57722 6.6492,-63.13846 6.38431,-94.849672 0.34627,-12.567559 -6.88154,-25.199097 -19.04368,-29.469131 -7.17918,-3.040494 -15.04647,-4.415031 -22.8297,-4.204074 z"
         id="path1012"
         transform="matrix(0.75000002,0,0,-0.75000002,0,432.00001)" />
    </g>
  </g>
</svg>
